<svg width="1077" height="235" viewBox="0 0 1077 235" fill="none" xmlns="http://www.w3.org/2000/svg">
<path d="M1076.92 0H0V234.782H1076.92V0Z" fill="white"/>
<path d="M76.9261 0H0V39.132H76.9261V0Z" fill="#A7ADFB"/>
<path d="M76.9261 0H0V39.132H76.9261V0Z" fill="#AEB3FC"/>
<path d="M153.852 0H76.926V39.132H153.852V0Z" fill="#969DFB"/>
<path d="M76.926 0L153.852 39.132H76.926V0Z" fill="#B3B8FC"/>
<path d="M230.768 0H153.842V39.132H230.768V0Z" fill="#EEEFFE"/>
<path d="M153.842 0H230.768V39.132L153.842 0Z" fill="#7F88FA"/>
<path d="M307.695 0H230.769V39.132H307.695V0Z" fill="#6B75F9"/>
<path d="M230.769 0H307.695L230.769 39.132V0Z" fill="#F9F9FF"/>
<path d="M384.621 0H307.695V39.132H384.621V0Z" fill="#CCD0FD"/>
<path d="M307.695 0C328.097 0 347.663 4.12282 362.09 11.4615C376.516 18.8002 384.621 28.7535 384.621 39.132H307.695" fill="#9DA3FB"/>
<path d="M461.537 0H384.611V39.132H461.537V0Z" fill="#8B93FA"/>
<path d="M461.537 0V39.132H384.611L461.537 0Z" fill="#FFD36C"/>
<path d="M538.463 0H461.537V39.132H538.463V0Z" fill="#FFE5A7"/>
<path d="M461.537 0L538.463 39.132H461.537V0Z" fill="#FFF3D6"/>
<path d="M615.389 0H538.463V39.132H615.389V0Z" fill="#D7DAFD"/>
<path d="M615.389 0V39.132H538.463L615.389 0Z" fill="#B6BAFC"/>
<path d="M692.305 0H615.379V39.132H692.305V0Z" fill="#C5C9FD"/>
<path d="M615.379 0C635.781 0 655.348 4.12282 669.774 11.4615C684.201 18.8002 692.305 28.7535 692.305 39.132L615.379 0C615.379 10.3784 623.484 20.3318 637.911 27.6705C652.337 35.0092 671.903 39.132 692.305 39.132" fill="#6D77F9"/>
<path d="M769.232 0H692.305V39.132H769.232V0Z" fill="#FFD77C"/>
<path d="M769.232 0H692.305V39.132H769.232V0Z" fill="#B7BCFC"/>
<path d="M846.158 0H769.231V39.132H846.158V0Z" fill="#F8F9FF"/>
<path d="M846.158 0H769.231V39.132H846.158V0Z" fill="#CDD1FD"/>
<path d="M923.074 0H846.148V39.132H923.074V0Z" fill="#B0B5FC"/>
<path d="M846.148 39.132C846.148 28.7535 854.253 18.8002 868.679 11.4615C883.106 4.12282 902.672 0 923.074 0L846.148 39.132C866.55 39.132 886.116 35.0092 900.543 27.6705C914.969 20.3318 923.074 10.3784 923.074 0" fill="#9198FA"/>
<path d="M1000 0H923.074V39.132H1000V0Z" fill="#ABB0FC"/>
<path d="M923.074 39.132C943.476 39.132 963.043 35.0092 977.469 27.6705C991.895 20.3318 1000 10.3784 1000 0H923.074" fill="#FFEDC2"/>
<path d="M1076.93 0H1000V39.132H1076.93V0Z" fill="#FFF1D1"/>
<path d="M1000 39.132C1000 28.7535 1008.1 18.8002 1022.53 11.4615C1036.96 4.12282 1056.52 0 1076.93 0L1000 39.132C1020.4 39.132 1039.97 35.0092 1054.4 27.6705C1068.82 20.3318 1076.93 10.3784 1076.93 0" fill="#6D76F9"/>
<path d="M76.9261 39.132H0V78.264H76.9261V39.132Z" fill="#C3C7FD"/>
<path d="M0 78.264C0 67.8855 8.10469 57.9321 22.5311 50.5935C36.9576 43.2548 56.524 39.132 76.9261 39.132L0 78.264C20.4021 78.264 39.9685 74.1411 54.395 66.8025C68.8214 59.4638 76.9261 49.5104 76.9261 39.132" fill="#A6ACFB"/>
<path d="M153.852 39.132H76.926V78.264H153.852V39.132Z" fill="#ECEDFE"/>
<path d="M153.852 39.132H76.926V78.264H153.852V39.132Z" fill="#8E96FA"/>
<path d="M230.768 39.132H153.842V78.264H230.768V39.132Z" fill="white"/>
<path d="M153.842 78.264C153.842 67.8855 161.947 57.9321 176.373 50.5935C190.8 43.2548 210.366 39.132 230.768 39.132V78.264" fill="#CFD2FD"/>
<path d="M307.695 39.132H230.769V78.264H307.695V39.132Z" fill="#747DF9"/>
<path d="M307.695 39.132H230.769V78.264H307.695V39.132Z" fill="#A7ACFB"/>
<path d="M384.621 39.132H307.695V78.264H384.621V39.132Z" fill="#E2E4FE"/>
<path d="M307.695 39.132C328.097 39.132 347.663 43.2548 362.09 50.5935C376.516 57.9321 384.621 67.8855 384.621 78.264L307.695 39.132C307.695 49.5104 315.799 59.4638 330.226 66.8025C344.652 74.1411 364.219 78.264 384.621 78.264" fill="#FFCF5E"/>
<path d="M461.537 39.132H384.611V78.264H461.537V39.132Z" fill="#FFFDF9"/>
<path d="M461.537 39.132V78.264H384.611L461.537 39.132Z" fill="#C5C9FD"/>
<path d="M538.463 39.132H461.537V78.264H538.463V39.132Z" fill="#9097FA"/>
<path d="M538.463 39.132H461.537V78.264H538.463V39.132Z" fill="#FFE2A0"/>
<path d="M615.389 39.132H538.463V78.264H615.389V39.132Z" fill="#7982F9"/>
<path d="M538.463 39.132H615.389V78.264L538.463 39.132Z" fill="#FFD36C"/>
<path d="M692.305 39.132H615.379V78.264H692.305V39.132Z" fill="#FFF2D3"/>
<path d="M692.305 39.132H615.379V78.264H692.305V39.132Z" fill="#E3E4FE"/>
<path d="M769.232 39.132H692.305V78.264H769.232V39.132Z" fill="#FFD574"/>
<path d="M769.232 39.132H692.305V78.264H769.232V39.132Z" fill="#5B66F8"/>
<path d="M846.158 39.132H769.231V78.264H846.158V39.132Z" fill="#FFDE92"/>
<path d="M769.231 39.132H846.158V78.264L769.231 39.132Z" fill="#FFDD90"/>
<path d="M923.074 39.132H846.148V78.264H923.074V39.132Z" fill="#FFF0CD"/>
<path d="M923.074 39.132H846.148V78.264H923.074V39.132Z" fill="#FFFCF6"/>
<path d="M1000 39.132H923.074V78.264H1000V39.132Z" fill="#6F79F9"/>
<path d="M923.074 78.264C943.476 78.264 963.043 74.1411 977.469 66.8025C991.895 59.4638 1000 49.5104 1000 39.132H923.074" fill="#737CF9"/>
<path d="M1076.93 39.132H1000V78.264H1076.93V39.132Z" fill="#B6BBFC"/>
<path d="M1076.93 39.132V78.264H1000L1076.93 39.132Z" fill="#C2C6FC"/>
<path d="M76.9261 78.2589H0V117.391H76.9261V78.2589Z" fill="#FFCD59"/>
<path d="M0 78.2589L76.9261 117.391H0V78.2589Z" fill="#FFDD90"/>
<path d="M153.852 78.2589H76.926V117.391H153.852V78.2589Z" fill="#FFECBF"/>
<path d="M153.852 78.2589H76.926V117.391H153.852V78.2589Z" fill="#FFF3D7"/>
<path d="M230.768 78.2589H153.842V117.391H230.768V78.2589Z" fill="#FFDB87"/>
<path d="M230.768 78.2589H153.842V117.391H230.768V78.2589Z" fill="#E5E7FE"/>
<path d="M307.695 78.2589H230.769V117.391H307.695V78.2589Z" fill="#F7F7FF"/>
<path d="M230.769 117.391C230.769 107.012 238.873 97.0591 253.3 89.7204C267.726 82.3818 287.293 78.2589 307.695 78.2589V117.391" fill="#636DF9"/>
<path d="M384.621 78.2589H307.695V117.391H384.621V78.2589Z" fill="#FFEBBB"/>
<path d="M307.695 117.391C328.097 117.391 347.663 113.268 362.09 105.929C376.516 98.5908 384.621 88.6374 384.621 78.2589H307.695" fill="#767FF9"/>
<path d="M461.537 78.2589H384.611V117.391H461.537V78.2589Z" fill="#656FF9"/>
<path d="M461.537 78.2589H384.611V117.391H461.537V78.2589Z" fill="#BFC4FC"/>
<path d="M538.463 78.2589H461.537V117.391H538.463V78.2589Z" fill="#FFEFCB"/>
<path d="M461.537 78.2589C481.939 78.2589 501.505 82.3818 515.932 89.7204C530.358 97.0591 538.463 107.012 538.463 117.391L461.537 78.2589C461.537 88.6374 469.642 98.5908 484.068 105.929C498.494 113.268 518.061 117.391 538.463 117.391" fill="#8A91FA"/>
<path d="M615.389 78.2589H538.463V117.391H615.389V78.2589Z" fill="#D8DAFD"/>
<path d="M538.463 117.391C558.865 117.391 578.431 113.268 592.858 105.929C607.284 98.5908 615.389 88.6374 615.389 78.2589H538.463" fill="#5762F8"/>
<path d="M692.305 78.2589H615.379V117.391H692.305V78.2589Z" fill="#FFCF60"/>
<path d="M692.305 78.2589V117.391H615.379L692.305 78.2589Z" fill="#FFD676"/>
<path d="M769.232 78.2589H692.305V117.391H769.232V78.2589Z" fill="#FFCA51"/>
<path d="M692.305 117.391C692.305 107.012 700.41 97.0591 714.837 89.7204C729.263 82.3818 748.829 78.2589 769.232 78.2589V117.391" fill="#FFD573"/>
<path d="M846.158 78.2589H769.231V117.391H846.158V78.2589Z" fill="#9EA4FB"/>
<path d="M769.231 78.2589C789.634 78.2589 809.2 82.3818 823.626 89.7204C838.053 97.0591 846.158 107.012 846.158 117.391L769.231 78.2589C769.231 88.6374 777.336 98.5908 791.763 105.929C806.189 113.268 825.756 117.391 846.158 117.391" fill="#9CA2FB"/>
<path d="M923.074 78.2589H846.148V117.391H923.074V78.2589Z" fill="#5E69F8"/>
<path d="M923.074 78.2589H846.148V117.391H923.074V78.2589Z" fill="#D4D7FD"/>
<path d="M1000 78.2589H923.074V117.391H1000V78.2589Z" fill="#FFD676"/>
<path d="M923.074 117.391C923.074 107.012 931.179 97.0591 945.605 89.7204C960.032 82.3818 979.598 78.2589 1000 78.2589L923.074 117.391C943.476 117.391 963.043 113.268 977.469 105.929C991.895 98.5908 1000 88.6374 1000 78.2589" fill="#8A91FA"/>
<path d="M1076.93 78.2589H1000V117.391H1076.93V78.2589Z" fill="#6973F9"/>
<path d="M1076.93 78.2589V117.391H1000L1076.93 78.2589Z" fill="#FFCD58"/>
<path d="M76.9261 117.391H0V156.523H76.9261V117.391Z" fill="#FFD677"/>
<path d="M76.9261 117.391H0V156.523H76.9261V117.391Z" fill="#B1B6FC"/>
<path d="M153.852 117.391H76.926V156.523H153.852V117.391Z" fill="#FFFEFC"/>
<path d="M76.926 117.391C97.3281 117.391 116.895 121.514 131.321 128.852C145.747 136.191 153.852 146.144 153.852 156.523L76.926 117.391C76.926 127.769 85.0307 137.723 99.4572 145.061C113.884 152.4 133.45 156.523 153.852 156.523" fill="#FFFBF1"/>
<path d="M230.768 117.391H153.842V156.523H230.768V117.391Z" fill="#FFDA84"/>
<path d="M153.842 117.391C174.244 117.391 193.811 121.514 208.237 128.852C222.664 136.191 230.768 146.144 230.768 156.523L153.842 117.391C153.842 127.769 161.947 137.723 176.373 145.061C190.8 152.4 210.366 156.523 230.768 156.523" fill="#FFCF5F"/>
<path d="M307.695 117.391H230.769V156.523H307.695V117.391Z" fill="#FFFCF4"/>
<path d="M230.769 156.523C230.769 146.144 238.873 136.191 253.3 128.852C267.726 121.514 287.293 117.391 307.695 117.391L230.769 156.523C251.171 156.523 270.737 152.4 285.164 145.061C299.59 137.723 307.695 127.769 307.695 117.391" fill="#FFFCF6"/>
<path d="M384.621 117.391H307.695V156.523H384.621V117.391Z" fill="#FFEBBD"/>
<path d="M307.695 117.391H384.621L307.695 156.523V117.391Z" fill="#8A92FA"/>
<path d="M461.537 117.391H384.611V156.523H461.537V117.391Z" fill="#FBFBFF"/>
<path d="M384.611 117.391L461.537 156.523H384.611V117.391Z" fill="#D8DAFD"/>
<path d="M538.463 117.391H461.537V156.523H538.463V117.391Z" fill="#C8CCFD"/>
<path d="M461.537 117.391L538.463 156.523H461.537V117.391Z" fill="#FFF7E3"/>
<path d="M615.389 117.391H538.463V156.523H615.389V117.391Z" fill="#DDDFFE"/>
<path d="M538.463 117.391C558.865 117.391 578.431 121.514 592.858 128.852C607.284 136.191 615.389 146.144 615.389 156.523H538.463" fill="#FFECC1"/>
<path d="M692.305 117.391H615.379V156.523H692.305V117.391Z" fill="#F0F1FE"/>
<path d="M615.379 117.391C635.781 117.391 655.348 121.514 669.774 128.852C684.201 136.191 692.305 146.144 692.305 156.523L615.379 117.391C615.379 127.769 623.484 137.723 637.911 145.061C652.337 152.4 671.903 156.523 692.305 156.523" fill="#F4F5FF"/>
<path d="M769.232 117.391H692.305V156.523H769.232V117.391Z" fill="#8E95FA"/>
<path d="M692.305 156.523C692.305 146.144 700.41 136.191 714.837 128.852C729.263 121.514 748.829 117.391 769.232 117.391V156.523" fill="#FCFCFF"/>
<path d="M846.158 117.391H769.231V156.523H846.158V117.391Z" fill="#5964F8"/>
<path d="M769.231 156.523C769.231 146.144 777.336 136.191 791.763 128.852C806.189 121.514 825.756 117.391 846.158 117.391L769.231 156.523C789.634 156.523 809.2 152.4 823.626 145.061C838.053 137.723 846.158 127.769 846.158 117.391" fill="#E7E9FE"/>
<path d="M923.074 117.391H846.148V156.523H923.074V117.391Z" fill="#BDC1FC"/>
<path d="M923.074 117.391H846.148V156.523H923.074V117.391Z" fill="#FFDA83"/>
<path d="M1000 117.391H923.074V156.523H1000V117.391Z" fill="#FFDD8F"/>
<path d="M1000 117.391H923.074V156.523H1000V117.391Z" fill="#FFEABA"/>
<path d="M1076.93 117.391H1000V156.523H1076.93V117.391Z" fill="#8E95FA"/>
<path d="M1000 117.391H1076.93L1000 156.523V117.391Z" fill="#FFFAEE"/>
<path d="M76.9261 156.523H0V195.655H76.9261V156.523Z" fill="#989FFB"/>
<path d="M76.9261 156.523V195.655H0L76.9261 156.523Z" fill="#FBFCFF"/>
<path d="M153.852 156.523H76.926V195.655H153.852V156.523Z" fill="#FFFAF0"/>
<path d="M153.852 156.523H76.926V195.655H153.852V156.523Z" fill="#FFCA4F"/>
<path d="M230.768 156.523H153.842V195.655H230.768V156.523Z" fill="#FFDB88"/>
<path d="M153.842 156.523C174.244 156.523 193.811 160.646 208.237 167.984C222.664 175.323 230.768 185.276 230.768 195.655L153.842 156.523C153.842 166.901 161.947 176.855 176.373 184.193C190.8 191.532 210.366 195.655 230.768 195.655" fill="#9097FA"/>
<path d="M307.695 156.523H230.769V195.655H307.695V156.523Z" fill="#FFF0CE"/>
<path d="M230.769 156.523H307.695V195.655L230.769 156.523Z" fill="#FFCB54"/>
<path d="M384.621 156.523H307.695V195.655H384.621V156.523Z" fill="#FFCC56"/>
<path d="M384.621 156.523H307.695V195.655H384.621V156.523Z" fill="#FFFEFB"/>
<path d="M461.537 156.523H384.611V195.655H461.537V156.523Z" fill="#FFDF94"/>
<path d="M461.537 156.523H384.611V195.655H461.537V156.523Z" fill="#FFF5DD"/>
<path d="M538.463 156.523H461.537V195.655H538.463V156.523Z" fill="#FFFCF3"/>
<path d="M538.463 156.523H461.537V195.655H538.463V156.523Z" fill="#B8BDFC"/>
<path d="M615.389 156.523H538.463V195.655H615.389V156.523Z" fill="#FFFDFA"/>
<path d="M615.389 156.523H538.463V195.655H615.389V156.523Z" fill="#FFFEFB"/>
<path d="M692.305 156.523H615.379V195.655H692.305V156.523Z" fill="#747DF9"/>
<path d="M615.379 156.523L692.305 195.655H615.379V156.523Z" fill="#FFDE91"/>
<path d="M769.232 156.523H692.305V195.655H769.232V156.523Z" fill="#FFEEC7"/>
<path d="M769.232 156.523H692.305V195.655H769.232V156.523Z" fill="#828AFA"/>
<path d="M846.158 156.523H769.231V195.655H846.158V156.523Z" fill="#A3A9FB"/>
<path d="M846.158 156.523H769.231V195.655H846.158V156.523Z" fill="#DEE0FE"/>
<path d="M923.074 156.523H846.148V195.655H923.074V156.523Z" fill="#FFD574"/>
<path d="M846.148 195.655C866.55 195.655 886.116 191.532 900.543 184.193C914.969 176.855 923.074 166.901 923.074 156.523H846.148" fill="#FBFBFF"/>
<path d="M1000 156.523H923.074V195.655H1000V156.523Z" fill="#FFE5A8"/>
<path d="M923.074 156.523C943.476 156.523 963.043 160.646 977.469 167.984C991.895 175.323 1000 185.276 1000 195.655L923.074 156.523C923.074 166.901 931.179 176.855 945.605 184.193C960.032 191.532 979.598 195.655 1000 195.655" fill="#FFE8B3"/>
<path d="M1076.93 156.523H1000V195.655H1076.93V156.523Z" fill="#6973F9"/>
<path d="M1076.93 156.523H1000V195.655H1076.93V156.523Z" fill="#7F87FA"/>
<path d="M76.9261 195.65H0V234.782H76.9261V195.65Z" fill="#FFF0CE"/>
<path d="M0 195.65C0 206.028 8.10469 215.982 22.5311 223.32C36.9576 230.659 56.524 234.782 76.9261 234.782V195.65" fill="#AFB5FC"/>
<path d="M153.852 195.65H76.926V234.782H153.852V195.65Z" fill="#949BFB"/>
<path d="M76.926 195.65L153.852 234.782H76.926V195.65Z" fill="#5C67F8"/>
<path d="M230.768 195.65H153.842V234.782H230.768V195.65Z" fill="#FFD677"/>
<path d="M153.842 195.65H230.768L153.842 234.782V195.65Z" fill="#AAB0FB"/>
<path d="M307.695 195.65H230.769V234.782H307.695V195.65Z" fill="#8D94FA"/>
<path d="M230.769 195.65H307.695L230.769 234.782V195.65Z" fill="#9198FA"/>
<path d="M384.621 195.65H307.695V234.782H384.621V195.65Z" fill="#FFD981"/>
<path d="M384.621 195.65H307.695V234.782H384.621V195.65Z" fill="#FFD87E"/>
<path d="M461.537 195.65H384.611V234.782H461.537V195.65Z" fill="#B5B9FC"/>
<path d="M384.611 195.65H461.537V234.782L384.611 195.65Z" fill="#FFECBF"/>
<path d="M538.463 195.65H461.537V234.782H538.463V195.65Z" fill="#B1B6FC"/>
<path d="M538.463 195.65H461.537V234.782H538.463V195.65Z" fill="#656FF9"/>
<path d="M615.389 195.65H538.463V234.782H615.389V195.65Z" fill="#5661F8"/>
<path d="M615.389 195.65H538.463V234.782H615.389V195.65Z" fill="#8F96FA"/>
<path d="M692.305 195.65H615.379V234.782H692.305V195.65Z" fill="#8C93FA"/>
<path d="M615.379 195.65H692.305L615.379 234.782V195.65Z" fill="#FFFAED"/>
<path d="M769.232 195.65H692.305V234.782H769.232V195.65Z" fill="#FFF3D9"/>
<path d="M692.305 195.65L769.232 234.782H692.305V195.65Z" fill="#A4AAFB"/>
<path d="M846.158 195.65H769.231V234.782H846.158V195.65Z" fill="#FFF5DF"/>
<path d="M846.158 195.65H769.231V234.782H846.158V195.65Z" fill="#B0B5FC"/>
<path d="M923.074 195.65H846.148V234.782H923.074V195.65Z" fill="#EDEEFE"/>
<path d="M923.074 195.65H846.148V234.782H923.074V195.65Z" fill="#FFD779"/>
<path d="M1000 195.65H923.074V234.782H1000V195.65Z" fill="#FFDF94"/>
<path d="M1000 195.65H923.074V234.782H1000V195.65Z" fill="#8B93FA"/>
<path d="M1076.93 195.65H1000V234.782H1076.93V195.65Z" fill="#FFDD8E"/>
<path d="M1076.93 195.65H1000V234.782H1076.93V195.65Z" fill="#FFF8E9"/>
</svg>
